<?xml version="1.0" encoding="UTF-8"?>
<svg version="1.1" xmlns="http://www.w3.org/2000/svg" width="1024" height="1024">

<path d="M0 0 C36.96 0 73.92 0 112 0 C117.77046235 12.18208719 123.44577682 24.3572641 128.875 36.6875 C130.25580957 39.81469037 131.63889636 42.94086632 133.0234375 46.06640625 C133.36119202 46.82894714 133.69894653 47.59148804 134.04693604 48.37713623 C137.57813053 56.33158266 141.21228636 64.23761177 144.90185547 72.11987305 C145.31580566 73.01101807 145.72975586 73.90216309 146.15625 74.8203125 C146.69475586 75.96910889 146.69475586 75.96910889 147.24414062 77.14111328 C148 79 148 79 148 81 C137.44 81 126.88 81 116 81 C115.01 84.63 114.02 88.26 113 92 C112.67 92.66 112.34 93.32 112 94 C125.86 94 139.72 94 154 94 C162 110 162 110 165 117 C166.15364657 115.84635343 167.30661165 114.69202078 168.45703125 113.53515625 C169.4857566 112.51163964 170.5249288 111.49851715 171.57421875 110.49609375 C172.12722656 109.96113281 172.68023438 109.42617188 173.25 108.875 C173.8271022 108.31923782 174.40420441 107.76347565 174.99879456 107.19087219 C177.10035917 105.01625062 177.10035917 105.01625062 178.75035095 102.25309753 C181.80569585 97.65268772 184.11763485 94.50835797 189.58474731 93.03189087 C193.93533896 92.58897615 198.26698948 92.76045812 202.62890625 92.92578125 C204.23024622 92.94633103 205.83165598 92.96197335 207.43309021 92.97294617 C211.62219555 93.01469258 215.80701824 93.12249284 219.9944458 93.24468994 C224.27760887 93.35778784 228.56147319 93.40757537 232.84570312 93.46289062 C241.23242135 93.58040981 249.61567614 93.76780812 258 94 C258.13277344 93.38511719 258.26554687 92.77023437 258.40234375 92.13671875 C258.57894531 91.32847656 258.75554687 90.52023437 258.9375 89.6875 C259.19853516 88.48673828 259.19853516 88.48673828 259.46484375 87.26171875 C260 85 260 85 261 82 C240.21 81.67 219.42 81.34 198 81 C201.72277318 76.65676463 205.42087332 72.42412995 209.3125 68.25 C212.9390717 64.33650029 216.40305336 60.34686787 219.75 56.1875 C222.76487519 52.44304648 225.88087566 49.0007485 229.33203125 45.66015625 C231.70553856 43.29776607 233.8646571 40.76929648 236.05078125 38.234375 C238.33020694 35.62148624 240.66212353 33.06069979 243 30.5 C246.43017594 26.73920469 249.81131696 22.94478663 253.1484375 19.1015625 C256.23951823 15.59312066 259.408501 12.15559476 262.5703125 8.7109375 C265.0894938 6.05894167 265.0894938 6.05894167 266.93937683 2.87313843 C268.69409322 0.78569585 269.65417676 0.08033495 272.33687782 -0.54285812 C275.3733223 -0.74055948 278.35721938 -0.74161834 281.3996582 -0.68115234 C282.55130966 -0.6820285 283.70296112 -0.68290466 284.88951111 -0.68380737 C288.69395911 -0.67962913 292.49664147 -0.63296041 296.30078125 -0.5859375 C298.93921444 -0.57474635 301.57766011 -0.56620578 304.21611023 -0.56021118 C310.44945786 -0.54157994 316.68217232 -0.49236752 322.91524142 -0.43211424 C330.01307705 -0.36499444 337.1109433 -0.33204657 344.2090174 -0.30194163 C358.80633787 -0.23926608 373.40316007 -0.13376534 388 0 C386.55478092 3.00898207 385.08515089 5.19256698 382.76953125 7.609375 C382.13080078 8.28226562 381.49207031 8.95515625 380.83398438 9.6484375 C380.16689453 10.34195312 379.49980469 11.03546875 378.8125 11.75 C374.34220646 16.42935204 369.96055161 21.14981106 365.72143555 26.04003906 C362.88977922 29.26405509 359.94289077 32.37781376 357 35.5 C352.86267839 39.90975565 348.77360318 44.33874379 344.828125 48.921875 C341.79704534 52.36746128 338.66173548 55.7168809 335.54248047 59.08251953 C332.50214317 62.36555291 329.48564451 65.66693503 326.5 69 C322.99645709 72.9112279 319.44419837 76.77387791 315.875 80.625 C312.74468215 84.00318713 309.63014772 87.38417184 306.625 90.875 C303.19065603 94.85071839 299.59297389 98.66833367 296 102.5 C291.84038228 106.93624121 287.72438332 111.38874818 283.75390625 115.99609375 C279.12431335 121.28558408 274.30483065 126.411645 269.54296875 131.58203125 C262.97964066 138.69405103 262.97964066 138.69405103 256.5625 145.9375 C252.93855356 150.12032011 249.16744254 154.16271807 245.40478516 158.22021484 C242.15135213 161.73482029 238.96591238 165.29608667 235.83203125 168.91796875 C233.46749922 171.60516614 231.04777937 174.24046524 228.625 176.875 C225.09211192 180.71836503 221.56468218 184.56605973 218.0625 188.4375 C217.37285156 189.19933594 216.68320312 189.96117187 215.97265625 190.74609375 C215.32167969 191.48988281 214.67070313 192.23367188 214 193 C213.23558594 193.81597656 212.47117187 194.63195312 211.68359375 195.47265625 C209.75911653 197.79729249 209.75911653 197.79729249 210.17114258 200.16943359 C211.26521821 203.90572605 212.88535066 207.32406204 214.578125 210.81640625 C215.12211441 211.95640327 215.12211441 211.95640327 215.67709351 213.11943054 C216.45687972 214.75212928 217.23917992 216.38362924 218.02374268 218.01403809 C219.683606 221.46363905 221.33133191 224.91898659 222.97952271 228.37417603 C223.81167671 230.11857756 224.64442126 231.8626975 225.47775269 233.60653687 C228.91205754 240.79742512 232.28395152 248.01525243 235.625 255.25 C240.35512751 265.47776819 245.13322249 275.68192883 249.9375 285.875 C254.97970693 296.57346153 260.00519262 307.27932462 265 318 C269.93649375 328.59365892 274.89674833 339.17589969 279.875 349.75 C280.20322754 350.44737274 280.53145508 351.14474548 280.86962891 351.86325073 C284.3814459 359.3244597 287.89700871 366.78388202 291.41970825 374.23995972 C292.91949411 377.41499639 294.41786746 380.5906986 295.91607666 383.76647949 C296.63585617 385.29115236 297.35635031 386.81548808 298.07757568 388.33947754 C299.07425892 390.44556863 300.06863116 392.55273593 301.0625 394.66015625 C301.36165314 395.29069412 301.66080627 395.92123199 301.96902466 396.57087708 C304 400.88613959 304 400.88613959 304 402 C265.72 402 227.44 402 188 402 C178.82689274 383.65378549 178.82689274 383.65378549 174.875 374.5 C174.42036377 373.457229 173.96572754 372.41445801 173.49731445 371.34008789 C172.51397908 369.08437565 171.53233459 366.82792566 170.55224609 364.57080078 C168.93276391 360.84532949 167.30569164 357.12326029 165.67578125 353.40234375 C165.09928331 352.0861005 164.52278592 350.76985701 163.94628906 349.45361328 C163.65693481 348.79298889 163.36758057 348.1323645 163.06945801 347.45172119 C161.58810051 344.06858772 160.10844873 340.68470879 158.62890625 337.30078125 C158.33196869 336.62166687 158.03503113 335.94255249 157.72909546 335.24285889 C155.88804908 331.03196618 154.04770411 326.82076734 152.20762634 322.60945129 C145.84747608 308.05403663 139.48491009 293.50042008 133 279 C130.75682658 278.76701711 130.75682658 278.76701711 128.93359375 281.01953125 C128.10988281 281.94121094 127.28617188 282.86289062 126.4375 283.8125 C125.99857422 284.30226318 125.55964844 284.79202637 125.10742188 285.29663086 C121.20744764 289.68410187 117.48912241 294.20907443 113.8125 298.78515625 C110.40240264 302.95223643 110.40240264 302.95223643 107.92667198 303.24609566 C107.06571733 303.24425207 106.20476269 303.24240849 105.31771851 303.24050903 C103.83691048 303.24463303 103.83691048 303.24463303 102.32618713 303.24884033 C101.23934128 303.24164978 100.15249542 303.23445923 99.03271484 303.22705078 C97.32052513 303.22748886 97.32052513 303.22748886 95.57374573 303.22793579 C91.78606669 303.22653809 87.99858233 303.21095609 84.2109375 303.1953125 C81.59062813 303.19158394 78.97031737 303.18873623 76.3500061 303.18673706 C70.14870306 303.18051501 63.94747034 303.16409445 57.7461983 303.14403808 C50.68704583 303.12170157 43.62789004 303.11069132 36.56871104 303.10064721 C22.04577105 303.07972881 7.52288651 303.0445388 -7 303 C-6.05473397 301.72111551 -5.1068838 300.4441408 -4.15795898 299.16796875 C-3.63040512 298.45664795 -3.10285126 297.74532715 -2.55931091 297.01245117 C-0.58093279 294.45915065 1.60827124 292.23485158 3.9375 290 C7.46874173 286.54221649 10.80163082 283.02747828 14.01171875 279.2734375 C17.17236342 275.65949801 20.4583821 272.16115849 23.73779297 268.6550293 C24.23037598 268.12562744 24.72295898 267.59622559 25.23046875 267.05078125 C25.66770264 266.58325439 26.10493652 266.11572754 26.55541992 265.6340332 C28.13780882 263.91488199 28.13780882 263.91488199 29.73278427 261.4378252 C32 259 32 259 34.64738846 258.36914349 C35.66136074 258.36637811 36.67533302 258.36361273 37.72003174 258.36076355 C39.47000961 258.33783234 39.47000961 258.33783234 41.25534058 258.31443787 C42.53136139 258.32306351 43.8073822 258.33168915 45.12207031 258.34057617 C46.48226389 258.33212223 47.84244536 258.32147777 49.2026062 258.30880737 C52.8925029 258.28064258 56.58181866 258.2831356 60.2717905 258.29110122 C64.12893324 258.2942245 67.98589037 258.26919724 71.84295654 258.24714661 C79.14562899 258.20967972 86.44811521 258.19755707 93.75087428 258.1945222 C102.06528801 258.18983422 110.37951486 258.15691934 118.69384623 258.12162435 C135.79588976 258.04965769 152.8978144 258.01416921 170 258 C171.32 254.04 172.64 250.08 174 246 C131.43 246 88.86 246 45 246 C45 245.34 45 244.68 45 244 C45.680625 243.46375 46.36125 242.9275 47.0625 242.375 C50.06692775 239.9458882 52.35559715 237.38953013 54.85546875 234.46484375 C57.46889504 231.46106963 60.16660805 228.54300274 62.875 225.625 C67.2103464 220.9471243 71.52021292 216.25062365 75.75 211.4765625 C77.4061347 209.65366424 79.07926805 207.89458649 80.8125 206.1484375 C81.28091309 205.6652002 81.74932617 205.18196289 82.23193359 204.68408203 C83.55206424 203.32508319 84.88886685 201.98233775 86.2265625 200.640625 C88.28592964 198.15526034 88.28592964 198.15526034 87.82202148 195.3046875 C86.86337443 191.45073845 85.35187358 188.03612357 83.62109375 184.484375 C83.28956802 183.78733459 82.9580423 183.09029419 82.61647034 182.37213135 C81.56388143 180.16129326 80.50142188 177.95540383 79.4375 175.75 C78.37131932 173.52973097 77.30734467 171.30847434 76.24781799 169.08502197 C75.58983635 167.70521395 74.92779652 166.32733241 74.26133728 164.95159912 C72 160.22356099 72 160.22356099 72 158 C50.88 158 29.76 158 8 158 C9 152 9 152 11 145 C-5.5 145 -22 145 -39 145 C-38 139 -38 139 -36 132 C-4.32 132 27.36 132 60 132 C65 142 65 142 65 144 C113.18 143.67 161.36 143.34 211 143 C212.32 139.04 213.64 135.08 215 131 C163.52 131 112.04 131 59 131 C49.45912259 110.7256355 39.97639628 90.46409776 30.74447632 70.052948 C27.80525868 63.5586197 24.83424534 57.07896977 21.86328125 50.59912109 C16.19393976 38.23359309 10.55180691 25.85630241 5 13.4375 C4.48928955 12.30135254 3.9785791 11.16520508 3.45239258 9.99462891 C2.76439575 8.448479 2.76439575 8.448479 2.0625 6.87109375 C1.66160156 5.97318115 1.26070312 5.07526855 0.84765625 4.15014648 C0 2 0 2 0 0 Z " fill="#FDFDFD" transform="translate(511,311)"/>
<path d="M0 0 C29.7 0 59.4 0 90 0 C89.01 3.96 88.02 7.92 87 12 C121.65 12 156.3 12 192 12 C189.74501279 21.01994884 187.44634736 30.0300597 185 39 C238.13 39 291.26 39 346 39 C343.73726294 52.57642235 343.73726294 52.57642235 341.8125 59 C339.18424282 68.09372979 336.90661739 77.26452218 334.67504883 86.46289062 C332.39236646 95.75719558 329.70996033 104.78613487 327 114 C256.71 114 186.42 114 114 114 C113.34 116.31 112.68 118.62 112 121 C111.34 122.98 110.68 124.96 110 127 C127.16 127 144.32 127 162 127 C160.68 132.28 159.36 137.56 158 143 C157.13776764 146.47099756 157.13776764 146.47099756 156.27722168 149.94241333 C155.54441623 152.90172631 154.80847448 155.86025827 154.07275391 158.81884766 C153.69008027 160.35965547 153.30824788 161.90067246 152.92724609 163.44189453 C150.74519873 172.26511766 148.45677986 181.03167608 145.91992188 189.76123047 C144.48593326 194.80987512 143.24242878 199.90148108 142 205 C140.12583393 212.60562742 138.13687739 220.14085964 135.9296875 227.65625 C134.64673234 232.27057612 133.57791756 236.92645956 132.50390625 241.59301758 C130.29539747 251.14329646 127.69285571 260.57500501 125 270 C90.02 270 55.04 270 19 270 C21.82884072 257.55310083 24.63953676 245.27910713 28 233 C28.81938614 229.91847088 29.62861568 226.83430022 30.4375 223.75 C30.86581193 222.11977236 31.29419766 220.4895641 31.72265625 218.859375 C31.9355127 218.04919922 32.14836914 217.23902344 32.36767578 216.40429688 C32.9716688 214.10772419 33.57729353 211.81158953 34.18359375 209.515625 C34.58078403 208.01043114 34.97791872 206.50522262 35.375 205 C35.67760742 203.85362061 35.67760742 203.85362061 35.98632812 202.68408203 C37.22681884 197.97307999 38.4496908 193.257873 39.66015625 188.5390625 C42.35978522 178.02968558 45.08300585 167.54113595 48.125 157.125 C50.41221449 149.28656457 52.3946505 141.40786752 54.24658203 133.45605469 C55.70477608 127.19723631 57.29018948 120.9918918 58.97265625 114.7890625 C60.14957263 110.44834431 61.29549695 106.10000547 62.4375 101.75 C62.75376343 100.54766724 62.75376343 100.54766724 63.07641602 99.32104492 C64.12666055 95.32803994 65.17442155 91.33440008 66.21875 87.33984375 C68.14911507 79.96688926 70.10356813 72.60280448 72.13183594 65.25610352 C75.11291151 54.45117356 77.88739042 43.60442851 80.55224609 32.71704102 C80.96531006 31.03952759 80.96531006 31.03952759 81.38671875 29.328125 C81.74576294 27.85714355 81.74576294 27.85714355 82.11206055 26.35644531 C83.29795514 21.87371808 84.66758581 17.44138062 86 13 C56.3 13 26.6 13 -4 13 C-3 8 -3 8 0 0 Z " fill="#FDFDFD" transform="translate(128,443)"/>
<path d="M0 0 C77.88 0 155.76 0 236 0 C254.41251448 40.27737543 254.41251448 40.27737543 260.1875 53 C261.09566808 54.99948789 262.00395181 56.99892312 262.91238403 58.99829102 C263.7555851 60.85517435 264.59730933 62.71272811 265.43896484 64.5703125 C266.46238736 66.81883291 267.49369745 69.06378361 268.53369141 71.3046875 C268.99308105 72.29726563 269.4524707 73.28984375 269.92578125 74.3125 C270.32837158 75.17488281 270.73096191 76.03726563 271.14575195 76.92578125 C272 79 272 79 272 81 C194.45 81 116.9 81 37 81 C36.67 83.31 36.34 85.62 36 88 C35.34 89.98 34.68 91.96 34 94 C49.51 94 65.02 94 81 94 C79.68 99.28 78.36 104.56 77 110 C75.35 116.93 73.7 123.86 72 131 C37.35 131 2.7 131 -33 131 C-31.87517122 119.75171223 -31.87517122 119.75171223 -30.765625 115.66015625 C-30.40319702 114.29938965 -30.40319702 114.29938965 -30.03344727 112.91113281 C-29.77490967 111.97108398 -29.51637207 111.03103516 -29.25 110.0625 C-28.98050537 109.05670898 -28.71101074 108.05091797 -28.43334961 107.01464844 C-27.88483378 104.96810692 -27.33335634 102.92235671 -26.77880859 100.87744141 C-25.68612015 96.84031725 -24.62378743 92.79546652 -23.5625 88.75 C-23.36487061 88.00161865 -23.16724121 87.2532373 -22.96362305 86.48217773 C-21.73985416 81.84400209 -20.53564201 77.20116147 -19.34375 72.5546875 C-16.39902195 61.09046661 -13.37611748 49.66848361 -10.06323242 38.30493164 C-8.15508806 31.6995193 -6.53704614 25.06062321 -5.0546875 18.34765625 C-3.55915304 12.18273086 -1.74275705 6.09964968 0 0 Z " fill="#FEFEFE" transform="translate(252,311)"/>
<path d="M0 0 C52.8 0 105.6 0 160 0 C154 8 154 8 150 12 C188.28 12.33 226.56 12.66 266 13 C262.17485299 18.10019602 258.53919397 22.75351396 254.1875 27.3125 C249.63904785 32.15376491 245.37155817 37.13831202 241.2109375 42.3203125 C238.8906505 45.13253315 236.46928866 47.81797263 234 50.5 C230.70668301 54.07792463 227.55348679 57.71539666 224.5 61.5 C221.44651321 65.28460334 218.29331699 68.92207537 215 72.5 C210.98106679 76.86678524 207.18942845 81.35937066 203.49609375 86.00390625 C202.67238281 86.99261719 201.84867188 87.98132813 201 89 C200.11748109 90.20788713 200.11748109 90.20788713 199.21713352 91.44017601 C193.69876187 98.44138457 193.69876187 98.44138457 189.23051262 99.91070938 C186.03995037 100.2269442 182.98367496 100.23919799 179.77905273 100.13525391 C178.58780289 100.13671417 177.39655304 100.13817444 176.16920471 100.13967896 C172.92840782 100.13393753 169.69202888 100.0840979 166.45210528 100.01393938 C163.05705964 99.95107315 159.66191056 99.94552497 156.26637268 99.9336853 C149.84847414 99.90270494 143.43229581 99.8207889 137.01515204 99.72019041 C129.70456472 99.6080941 122.39389161 99.55335451 115.08265769 99.50323606 C100.05414955 99.39894074 85.02724747 99.22325418 70 99 C70.94055987 97.89751653 71.88187016 96.79567324 72.82348633 95.6940918 C73.34759598 95.08043259 73.87170563 94.46677338 74.41169739 93.83451843 C76.77623629 91.10343296 79.22602664 88.45602888 81.6875 85.8125 C82.73975242 84.67724003 83.79183184 83.5418197 84.84375 82.40625 C85.3696875 81.8390625 85.895625 81.271875 86.4375 80.6875 C88.86168023 78.06938535 91.27607896 75.4423654 93.6875 72.8125 C94.14286133 72.31588867 94.59822266 71.81927734 95.06738281 71.30761719 C97.87470732 68.24121731 100.66188879 65.15760603 103.4375 62.0625 C108.38619665 56.5502507 113.41527477 51.11379978 118.44726562 45.67773438 C122.4736925 41.32716747 126.49405072 36.97099821 130.51220703 32.61279297 C131.51779235 31.52272132 132.52399368 30.43321768 133.53076172 29.34423828 C135.02206616 27.73092236 136.51123604 26.11566012 138 24.5 C138.86625 23.5615625 139.7325 22.623125 140.625 21.65625 C142.83854546 19.18057416 144.92541471 16.59323161 147 14 C97.5 13.67 48 13.34 -3 13 C-1 3 -1 3 0 0 Z " fill="#FDFDFD" transform="translate(343,614)"/>
<path d="M0 0 C82.83 0 165.66 0 251 0 C249 9 249 9 247 13 C198.82 13 150.64 13 101 13 C96 3 96 3 96 1 C64.32 1 32.64 1 0 1 C0 0.67 0 0.34 0 0 Z " fill="#0F0F0F" transform="translate(475,442)"/>
<path d="M0 0 C29.7 0 59.4 0 90 0 C89.01 3.96 88.02 7.92 87 12 C121.65 12 156.3 12 192 12 C191.67 12.66 191.34 13.32 191 14 C175.3750093 14.03110188 159.75001759 14.05115086 144.125 14.0625 C142.36989546 14.06378403 142.36989546 14.06378403 140.57933426 14.06509399 C105.19569606 14.0879181 69.81859696 13.92921331 34.4375 13.5 C33.45117836 13.48804218 32.46485672 13.47608437 31.44864655 13.46376419 C19.63228722 13.3195823 7.81607974 13.16551759 -4 13 C-3.25465483 8.22979089 -1.78495892 4.75989046 0 0 Z " fill="#FDFDFD" transform="translate(128,443)"/>
<path d="M0 0 C0.33 0.66 0.66 1.32 1 2 C2.34154396 1.97787697 2.34154396 1.97787697 3.71018982 1.95530701 C15.61902209 1.76228688 27.52810921 1.5922213 39.4375 1.4375 C40.41657066 1.42476673 41.39564133 1.41203346 42.4043808 1.39891434 C77.98376244 0.94433221 113.54536374 1.05030506 149.125 1.4375 C150.30352917 1.45031384 151.48205833 1.46312767 152.69630051 1.4763298 C167.1310753 1.63474166 181.5656184 1.80917037 196 2 C195.67 2.66 195.34 3.32 195 4 C179.3750093 4.03110188 163.75001759 4.05115086 148.125 4.0625 C146.36989546 4.06378403 146.36989546 4.06378403 144.57933426 4.06509399 C109.19569606 4.0879181 73.81859696 3.92921331 38.4375 3.5 C37.45117836 3.48804218 36.46485672 3.47608437 35.44864655 3.46376419 C23.63228722 3.3195823 11.81607974 3.16551759 0 3 C0 2.01 0 1.02 0 0 Z " fill="#898989" transform="translate(124,453)"/>
</svg>
